<svg xmlns="http://www.w3.org/2000/svg" viewBox="0 0 200 220" fill="none" aria-hidden="true">
  <ellipse cx="100" cy="208" rx="52" ry="8" fill="#1e2d4d" opacity="0.08"/>
  <path d="M58 118c0-22 18-40 42-40s42 18 42 40v52H58v-52z" fill="#2563eb"/>
  <path d="M72 118c0-14 12-26 28-26s28 12 28 26v52H72v-52z" fill="#3b82f6"/>
  <rect x="78" y="168" width="44" height="10" rx="5" fill="#1e2d4d"/>
  <rect x="70" y="176" width="60" height="18" rx="6" fill="#334155"/>
  <rect x="82" y="192" width="16" height="18" rx="4" fill="#1e2d4d"/>
  <rect x="102" y="192" width="16" height="18" rx="4" fill="#1e2d4d"/>
  <path d="M100 78c-18 0-32 12-34 28h68c-2-16-16-28-34-28z" fill="#fcd9b6"/>
  <circle cx="100" cy="58" r="30" fill="#fcd9b6"/>
  <path d="M70 52c4-18 18-28 30-28s26 10 30 28c-8-6-18-10-30-10s-22 4-30 10z" fill="#fbbf24"/>
  <path d="M70 52c0 8 6 14 14 14h32c8 0 14-6 14-14-6 4-14 6-30 6s-24-2-30-6z" fill="#f59e0b"/>
  <rect x="82" y="44" width="36" height="8" rx="4" fill="#f59e0b"/>
  <circle cx="90" cy="58" r="3" fill="#334155"/>
  <circle cx="110" cy="58" r="3" fill="#334155"/>
  <path d="M94 68c2 3 10 3 12 0" stroke="#334155" stroke-width="2" stroke-linecap="round"/>
  <ellipse cx="84" cy="62" rx="4" ry="2.5" fill="#fda4af" opacity="0.45"/>
  <ellipse cx="116" cy="62" rx="4" ry="2.5" fill="#fda4af" opacity="0.45"/>
  <path d="M128 88c10-4 18 2 22 14 2 8 0 18-8 24" stroke="#fcd9b6" stroke-width="14" stroke-linecap="round"/>
  <path d="M128 88c10-4 18 2 22 14 2 8 0 18-8 24" stroke="#2563eb" stroke-width="16" stroke-linecap="round"/>
  <circle cx="148" cy="64" r="14" fill="#fcd9b6"/>
  <path d="M142 58h12v4c0 4-2 6-6 6s-6-2-6-6v-4z" fill="#fcd9b6"/>
  <path d="M72 88c-10-4-18 2-22 14-2 8 0 18 8 24" stroke="#fcd9b6" stroke-width="14" stroke-linecap="round"/>
  <path d="M72 88c-10-4-18 2-22 14-2 8 0 18 8 24" stroke="#3b82f6" stroke-width="16" stroke-linecap="round"/>
  <path d="M100 96v8" stroke="#2563eb" stroke-width="3" stroke-linecap="round"/>
  <circle cx="100" cy="110" r="3" fill="#fbbf24"/>
</svg>
